<svg width="28" height="28" viewBox="0 0 28 28" fill="none" xmlns="http://www.w3.org/2000/svg">
<path d="M7.33317 4.00033C7.33317 4.88438 6.98198 5.73223 6.35686 6.35735C5.73174 6.98247 4.88389 7.33366 3.99984 7.33366C3.11578 7.33366 2.26794 6.98247 1.64281 6.35735C1.01769 5.73223 0.666504 4.88438 0.666504 4.00033C0.666504 3.11627 1.01769 2.26842 1.64281 1.6433C2.26794 1.01818 3.11578 0.666992 3.99984 0.666992C4.88389 0.666992 5.73174 1.01818 6.35686 1.6433C6.98198 2.26842 7.33317 3.11627 7.33317 4.00033ZM7.33317 14.0003C7.33317 14.8844 6.98198 15.7322 6.35686 16.3573C5.73174 16.9825 4.88389 17.3337 3.99984 17.3337C3.11578 17.3337 2.26794 16.9825 1.64281 16.3573C1.01769 15.7322 0.666504 14.8844 0.666504 14.0003C0.666504 13.1163 1.01769 12.2684 1.64281 11.6433C2.26794 11.0182 3.11578 10.667 3.99984 10.667C4.88389 10.667 5.73174 11.0182 6.35686 11.6433C6.98198 12.2684 7.33317 13.1163 7.33317 14.0003ZM3.99984 27.3337C4.88389 27.3337 5.73174 26.9825 6.35686 26.3573C6.98198 25.7322 7.33317 24.8844 7.33317 24.0003C7.33317 23.1163 6.98198 22.2684 6.35686 21.6433C5.73174 21.0182 4.88389 20.667 3.99984 20.667C3.11578 20.667 2.26794 21.0182 1.64281 21.6433C1.01769 22.2684 0.666504 23.1163 0.666504 24.0003C0.666504 24.8844 1.01769 25.7322 1.64281 26.3573C2.26794 26.9825 3.11578 27.3337 3.99984 27.3337ZM17.3332 4.00033C17.3332 4.88438 16.982 5.73223 16.3569 6.35735C15.7317 6.98247 14.8839 7.33366 13.9998 7.33366C13.1158 7.33366 12.2679 6.98247 11.6428 6.35735C11.0177 5.73223 10.6665 4.88438 10.6665 4.00033C10.6665 3.11627 11.0177 2.26842 11.6428 1.6433C12.2679 1.01818 13.1158 0.666992 13.9998 0.666992C14.8839 0.666992 15.7317 1.01818 16.3569 1.6433C16.982 2.26842 17.3332 3.11627 17.3332 4.00033ZM13.9998 17.3337C14.8839 17.3337 15.7317 16.9825 16.3569 16.3573C16.982 15.7322 17.3332 14.8844 17.3332 14.0003C17.3332 13.1163 16.982 12.2684 16.3569 11.6433C15.7317 11.0182 14.8839 10.667 13.9998 10.667C13.1158 10.667 12.2679 11.0182 11.6428 11.6433C11.0177 12.2684 10.6665 13.1163 10.6665 14.0003C10.6665 14.8844 11.0177 15.7322 11.6428 16.3573C12.2679 16.9825 13.1158 17.3337 13.9998 17.3337ZM17.3332 24.0003C17.3332 24.8844 16.982 25.7322 16.3569 26.3573C15.7317 26.9825 14.8839 27.3337 13.9998 27.3337C13.1158 27.3337 12.2679 26.9825 11.6428 26.3573C11.0177 25.7322 10.6665 24.8844 10.6665 24.0003C10.6665 23.1163 11.0177 22.2684 11.6428 21.6433C12.2679 21.0182 13.1158 20.667 13.9998 20.667C14.8839 20.667 15.7317 21.0182 16.3569 21.6433C16.982 22.2684 17.3332 23.1163 17.3332 24.0003ZM23.9998 7.33366C24.8839 7.33366 25.7317 6.98247 26.3569 6.35735C26.982 5.73223 27.3332 4.88438 27.3332 4.00033C27.3332 3.11627 26.982 2.26842 26.3569 1.6433C25.7317 1.01818 24.8839 0.666992 23.9998 0.666992C23.1158 0.666992 22.2679 1.01818 21.6428 1.6433C21.0177 2.26842 20.6665 3.11627 20.6665 4.00033C20.6665 4.88438 21.0177 5.73223 21.6428 6.35735C22.2679 6.98247 23.1158 7.33366 23.9998 7.33366ZM27.3332 14.0003C27.3332 14.8844 26.982 15.7322 26.3569 16.3573C25.7317 16.9825 24.8839 17.3337 23.9998 17.3337C23.1158 17.3337 22.2679 16.9825 21.6428 16.3573C21.0177 15.7322 20.6665 14.8844 20.6665 14.0003C20.6665 13.1163 21.0177 12.2684 21.6428 11.6433C22.2679 11.0182 23.1158 10.667 23.9998 10.667C24.8839 10.667 25.7317 11.0182 26.3569 11.6433C26.982 12.2684 27.3332 13.1163 27.3332 14.0003ZM23.9998 27.3337C24.8839 27.3337 25.7317 26.9825 26.3569 26.3573C26.982 25.7322 27.3332 24.8844 27.3332 24.0003C27.3332 23.1163 26.982 22.2684 26.3569 21.6433C25.7317 21.0182 24.8839 20.667 23.9998 20.667C23.1158 20.667 22.2679 21.0182 21.6428 21.6433C21.0177 22.2684 20.6665 23.1163 20.6665 24.0003C20.6665 24.8844 21.0177 25.7322 21.6428 26.3573C22.2679 26.9825 23.1158 27.3337 23.9998 27.3337Z" fill="white"/>
</svg>
