<svg width="181" height="30" viewBox="0 0 181 30" fill="none" xmlns="http://www.w3.org/2000/svg">
<path d="M13.749 6.01514L6.20801 29H0.133301L10.4355 1.27344H14.3013L13.749 6.01514ZM20.0142 29L12.4541 6.01514L11.8447 1.27344H15.7485L26.1079 29H20.0142ZM19.6714 18.6787V23.1538H5.02734V18.6787H19.6714ZM44.4082 19.8022H50.1021C49.9878 21.6685 49.4736 23.3252 48.5596 24.7725C47.6582 26.2197 46.395 27.3496 44.77 28.1621C43.1577 28.9746 41.2153 29.3809 38.9429 29.3809C37.1655 29.3809 35.5723 29.0762 34.1631 28.4668C32.7539 27.8447 31.5479 26.9561 30.5449 25.8008C29.5547 24.6455 28.7993 23.249 28.2788 21.6113C27.7583 19.9736 27.498 18.1392 27.498 16.1079V14.1846C27.498 12.1533 27.7646 10.3188 28.2979 8.68115C28.8438 7.03076 29.6182 5.62793 30.6211 4.47266C31.6367 3.31738 32.8491 2.42871 34.2583 1.80664C35.6675 1.18457 37.2417 0.873535 38.981 0.873535C41.2915 0.873535 43.2402 1.29248 44.8271 2.13037C46.4268 2.96826 47.6646 4.12354 48.5405 5.59619C49.4292 7.06885 49.9624 8.74463 50.1401 10.6235H44.4272C44.3638 9.50635 44.1416 8.56055 43.7607 7.78613C43.3799 6.99902 42.8022 6.40869 42.0278 6.01514C41.2661 5.60889 40.2505 5.40576 38.981 5.40576C38.0288 5.40576 37.1973 5.5835 36.4863 5.93896C35.7754 6.29443 35.1787 6.83398 34.6963 7.55762C34.2139 8.28125 33.8521 9.19531 33.6108 10.2998C33.3823 11.3916 33.2681 12.6738 33.2681 14.1465V16.1079C33.2681 17.5425 33.376 18.8057 33.5918 19.8975C33.8076 20.9766 34.1377 21.8906 34.582 22.6396C35.0391 23.376 35.623 23.9346 36.334 24.3154C37.0576 24.6836 37.9272 24.8677 38.9429 24.8677C40.1362 24.8677 41.1201 24.6772 41.8945 24.2964C42.6689 23.9155 43.2593 23.3506 43.6655 22.6016C44.0845 21.8525 44.332 20.9194 44.4082 19.8022ZM56.4624 1.27344H61.2993L68.4214 21.6304L75.5435 1.27344H80.3804L70.3638 29H66.479L56.4624 1.27344ZM53.8535 1.27344H58.6714L59.5474 21.1162V29H53.8535V1.27344ZM78.1714 1.27344H83.0083V29H77.2954V21.1162L78.1714 1.27344ZM106.622 24.5439V29H91.8633V24.5439H106.622ZM93.7295 1.27344V29H88.0166V1.27344H93.7295ZM104.698 12.5659V16.9077H91.8633V12.5659H104.698ZM106.603 1.27344V5.74854H91.8633V1.27344H106.603ZM125.741 1.27344V29H120.047V1.27344H125.741ZM153.658 1.27344V29H147.945L136.805 10.4141V29H131.092V1.27344H136.805L147.964 19.8784V1.27344H153.658ZM174.7 19.8022H180.394C180.28 21.6685 179.766 23.3252 178.852 24.7725C177.95 26.2197 176.687 27.3496 175.062 28.1621C173.45 28.9746 171.507 29.3809 169.235 29.3809C167.458 29.3809 165.864 29.0762 164.455 28.4668C163.046 27.8447 161.84 26.9561 160.837 25.8008C159.847 24.6455 159.091 23.249 158.571 21.6113C158.05 19.9736 157.79 18.1392 157.79 16.1079V14.1846C157.79 12.1533 158.057 10.3188 158.59 8.68115C159.136 7.03076 159.91 5.62793 160.913 4.47266C161.929 3.31738 163.141 2.42871 164.55 1.80664C165.959 1.18457 167.534 0.873535 169.273 0.873535C171.583 0.873535 173.532 1.29248 175.119 2.13037C176.719 2.96826 177.957 4.12354 178.833 5.59619C179.721 7.06885 180.254 8.74463 180.432 10.6235H174.719C174.656 9.50635 174.434 8.56055 174.053 7.78613C173.672 6.99902 173.094 6.40869 172.32 6.01514C171.558 5.60889 170.542 5.40576 169.273 5.40576C168.321 5.40576 167.489 5.5835 166.778 5.93896C166.067 6.29443 165.471 6.83398 164.988 7.55762C164.506 8.28125 164.144 9.19531 163.903 10.2998C163.674 11.3916 163.56 12.6738 163.56 14.1465V16.1079C163.56 17.5425 163.668 18.8057 163.884 19.8975C164.1 20.9766 164.43 21.8906 164.874 22.6396C165.331 23.376 165.915 23.9346 166.626 24.3154C167.35 24.6836 168.219 24.8677 169.235 24.8677C170.428 24.8677 171.412 24.6772 172.187 24.2964C172.961 23.9155 173.551 23.3506 173.958 22.6016C174.376 21.8525 174.624 20.9194 174.7 19.8022Z" fill="white"/>
</svg>
